<?xml version="1.0" encoding="UTF-8"?>
<svg id="Capa_1" xmlns="http://www.w3.org/2000/svg" version="1.1" viewBox="0 0 32 32">
  <!-- Generator: Adobe Illustrator 29.5.1, SVG Export Plug-In . SVG Version: 2.1.0 Build 141)  -->
  <defs>
    <style>
      .st0 {
        fill: #fff;
        fill-rule: evenodd;
      }
    </style>
  </defs>
  <path class="st0" d="M5.73,21.91c-3.21-.05-5.81-2.68-5.81-5.91s2.65-5.91,5.91-5.91h5.06v3.74h-4.71c-1.18,0-2.15.96-2.15,2.14s.95,2.13,2.11,2.15h4.75v3.78h-5.16Z"/>
  <path class="st0" d="M16.31,21.91c-3.21-.05-5.81-2.68-5.81-5.91s2.65-5.91,5.91-5.91h5.06v3.74h-4.71c-1.18,0-2.15.96-2.15,2.14s.95,2.13,2.11,2.15h4.75v3.78h-5.16Z"/>
  <path class="st0" d="M26.92,21.91c-3.21-.05-5.81-2.68-5.81-5.91s2.65-5.91,5.91-5.91h5.06v3.74h-4.71c-1.18,0-2.15.96-2.15,2.14s.95,2.13,2.11,2.15h4.75v3.78h-5.16Z"/>
</svg>